<?xml version="1.0" encoding="utf-8"?>
<!-- Generator: Adobe Illustrator 16.0.3, SVG Export Plug-In . SVG Version: 6.00 Build 0)  -->
<!DOCTYPE svg PUBLIC "-//W3C//DTD SVG 1.1//EN" "http://www.w3.org/Graphics/SVG/1.1/DTD/svg11.dtd">
<svg xmlns="http://www.w3.org/2000/svg" xmlns:xlink="http://www.w3.org/1999/xlink" version="1.1" x="0px" y="0px" width="650px" height="300px" viewBox="0 0 650 300" xml:space="preserve">
<g id="Warstwa_2">
	<rect x="-3.571" y="-5.378" fill="#6ACDE9" width="657.143" height="309.378"/>
</g>
<g id="Warstwa_1">
	<g>
		<path fill="#FFFFFF" d="M404.42,274.621c0,0.979-0.795,1.77-1.77,1.77H253.653c-0.983,0-1.771-0.79-1.771-1.77V171.389    c0-0.975,0.787-1.766,1.771-1.766H402.65c0.975,0,1.77,0.791,1.77,1.766V274.621z"/>
		<path fill="#D1D3D4" d="M279.799,169.623v1.774c0,2.347,1.907,4.253,4.254,4.253h91.115c2.352,0,4.261-1.906,4.261-4.253v-1.774    H279.799z"/>
		<path fill="#D1D3D4" d="M342.92,272.96h-32.818c-1.897,0-3.438,1.531-3.438,3.431h39.7    C346.363,274.491,344.822,272.96,342.92,272.96z"/>
		<path fill="#E6E7E8" d="M346.363,248.047c0-2.353-1.908-4.254-4.259-4.254h-31.187c-2.351,0-4.255,1.901-4.255,4.254v13.599    c0,2.349,1.904,4.26,4.255,4.26h31.187c2.351,0,4.259-1.911,4.259-4.26V248.047z"/>
		<g>
			<path fill="#276FA0" d="M275.002,194.962c0,0.321-0.259,0.58-0.579,0.58h-6.748c-0.318,0-0.576-0.259-0.576-0.58v-5.407     c0-0.312,0.257-0.569,0.576-0.569h6.748c0.32,0,0.579,0.258,0.579,0.569V194.962z"/>
			<path fill="#276FA0" d="M275.002,186.755c0,0.158-0.259,0.29-0.579,0.29h-6.748c-0.318,0-0.576-0.132-0.576-0.29v-2.704     c0-0.157,0.257-0.284,0.576-0.284h6.748c0.32,0,0.579,0.127,0.579,0.284V186.755z"/>
			<path fill="#276FA0" d="M285.132,186.755c0,0.158-0.259,0.29-0.579,0.29h-6.75c-0.317,0-0.576-0.132-0.576-0.29v-2.704     c0-0.157,0.259-0.284,0.576-0.284h6.75c0.32,0,0.579,0.127,0.579,0.284V186.755z"/>
			<path fill="#276FA0" d="M295.264,186.755c0,0.158-0.259,0.29-0.578,0.29h-6.75c-0.318,0-0.578-0.132-0.578-0.29v-2.704     c0-0.157,0.259-0.284,0.578-0.284h6.75c0.319,0,0.578,0.127,0.578,0.284V186.755z"/>
			<path fill="#276FA0" d="M305.39,186.755c0,0.158-0.256,0.29-0.577,0.29h-6.751c-0.316,0-0.578-0.132-0.578-0.29v-2.704     c0-0.157,0.262-0.284,0.578-0.284h6.751c0.321,0,0.577,0.127,0.577,0.284V186.755z"/>
			<path fill="#276FA0" d="M315.52,186.755c0,0.158-0.259,0.29-0.578,0.29h-6.748c-0.317,0-0.578-0.132-0.578-0.29v-2.704     c0-0.157,0.261-0.284,0.578-0.284h6.748c0.319,0,0.578,0.127,0.578,0.284V186.755z"/>
			<path fill="#276FA0" d="M325.649,186.755c0,0.158-0.255,0.29-0.577,0.29h-6.751c-0.321,0-0.578-0.132-0.578-0.29v-2.704     c0-0.157,0.257-0.284,0.578-0.284h6.751c0.322,0,0.577,0.127,0.577,0.284V186.755z"/>
			<path fill="#276FA0" d="M335.784,186.755c0,0.158-0.262,0.29-0.578,0.29h-6.755c-0.318,0-0.58-0.132-0.58-0.29v-2.704     c0-0.157,0.262-0.284,0.58-0.284h6.755c0.316,0,0.578,0.127,0.578,0.284V186.755z"/>
			<path fill="#276FA0" d="M345.912,186.755c0,0.158-0.26,0.29-0.578,0.29h-6.753c-0.317,0-0.573-0.132-0.573-0.29v-2.704     c0-0.157,0.256-0.284,0.573-0.284h6.753c0.318,0,0.578,0.127,0.578,0.284V186.755z"/>
			<path fill="#276FA0" d="M356.037,186.755c0,0.158-0.256,0.29-0.569,0.29h-6.751c-0.324,0-0.583-0.132-0.583-0.29v-2.704     c0-0.157,0.259-0.284,0.583-0.284h6.751c0.313,0,0.569,0.127,0.569,0.284V186.755z"/>
			<path fill="#276FA0" d="M366.166,186.755c0,0.158-0.258,0.29-0.575,0.29h-6.749c-0.318,0-0.574-0.132-0.574-0.29v-2.704     c0-0.157,0.256-0.284,0.574-0.284h6.749c0.317,0,0.575,0.127,0.575,0.284V186.755z"/>
			<path fill="#276FA0" d="M376.299,186.755c0,0.158-0.257,0.29-0.577,0.29h-6.751c-0.319,0-0.576-0.132-0.576-0.29v-2.704     c0-0.157,0.257-0.284,0.576-0.284h6.751c0.32,0,0.577,0.127,0.577,0.284V186.755z"/>
			<path fill="#276FA0" d="M386.43,186.755c0,0.158-0.262,0.29-0.58,0.29h-6.745c-0.322,0-0.58-0.132-0.58-0.29v-2.704     c0-0.157,0.258-0.284,0.58-0.284h6.745c0.318,0,0.58,0.127,0.58,0.284V186.755z"/>
			<path fill="#276FA0" d="M280.061,203.626c0,0.319-0.427,0.575-0.945,0.575h-11.068c-0.523,0-0.947-0.256-0.947-0.575v-5.405     c0-0.32,0.423-0.581,0.947-0.581h11.068c0.519,0,0.945,0.261,0.945,0.581V203.626z"/>
			<path fill="#276FA0" d="M285.132,212.287c0,0.316-0.588,0.571-1.313,0.571h-15.404c-0.725,0-1.314-0.255-1.314-0.571v-5.407     c0-0.319,0.589-0.58,1.314-0.58h15.404c0.725,0,1.313,0.261,1.313,0.58V212.287z"/>
			<path fill="#276FA0" d="M285.132,220.94c0,0.322-0.586,0.58-1.313,0.58h-15.404c-0.725,0-1.314-0.258-1.314-0.58v-5.396     c0-0.316,0.589-0.577,1.314-0.577h15.404c0.727,0,1.313,0.261,1.313,0.577V220.94z"/>
			<path fill="#276FA0" d="M275.002,238.272c0,0.311-0.259,0.572-0.579,0.572h-6.748c-0.318,0-0.576-0.262-0.576-0.572v-5.41     c0-0.317,0.257-0.575,0.576-0.575h6.748c0.32,0,0.579,0.258,0.579,0.575V238.272z"/>
			<path fill="#276FA0" d="M285.132,194.962c0,0.321-0.259,0.58-0.579,0.58h-6.75c-0.317,0-0.574-0.259-0.574-0.58v-5.407     c0-0.312,0.257-0.569,0.574-0.569h6.75c0.32,0,0.579,0.258,0.579,0.569V194.962z"/>
			<path fill="#276FA0" d="M290.19,203.626c0,0.319-0.257,0.575-0.575,0.575h-6.752c-0.316,0-0.575-0.256-0.575-0.575v-5.405     c0-0.32,0.259-0.581,0.575-0.581h6.752c0.318,0,0.575,0.261,0.575,0.581V203.626z"/>
			<path fill="#276FA0" d="M285.132,238.272c0,0.311-0.259,0.572-0.579,0.572h-6.75c-0.317,0-0.574-0.262-0.574-0.572v-5.41     c0-0.317,0.257-0.575,0.574-0.575h6.75c0.32,0,0.579,0.258,0.579,0.575V238.272z"/>
			<path fill="#276FA0" d="M295.264,194.962c0,0.321-0.259,0.58-0.578,0.58h-6.75c-0.318,0-0.578-0.259-0.578-0.58v-5.407     c0-0.312,0.259-0.569,0.578-0.569h6.75c0.319,0,0.578,0.258,0.578,0.569V194.962z"/>
			<path fill="#276FA0" d="M300.321,203.626c0,0.319-0.259,0.575-0.577,0.575h-6.751c-0.315,0-0.575-0.256-0.575-0.575v-5.405     c0-0.32,0.26-0.581,0.575-0.581h6.751c0.317,0,0.577,0.261,0.577,0.581V203.626z"/>
			<path fill="#276FA0" d="M295.264,212.287c0,0.316-0.259,0.571-0.578,0.571h-6.75c-0.318,0-0.578-0.255-0.578-0.571v-5.407     c0-0.319,0.259-0.58,0.578-0.58h6.75c0.319,0,0.578,0.261,0.578,0.58V212.287z"/>
			<path fill="#276FA0" d="M299.21,220.94c0,0.322-0.254,0.58-0.579,0.58h-6.749c-0.319,0-0.577-0.258-0.577-0.58v-5.396     c0-0.316,0.257-0.577,0.577-0.577h6.749c0.324,0,0.579,0.261,0.579,0.577V220.94z"/>
			<path fill="#276FA0" d="M295.264,238.272c0,0.311-0.259,0.572-0.578,0.572h-6.75c-0.318,0-0.578-0.262-0.578-0.572v-5.41     c0-0.317,0.259-0.575,0.578-0.575h6.75c0.319,0,0.578,0.258,0.578,0.575V238.272z"/>
			<path fill="#276FA0" d="M305.395,194.962c0,0.321-0.26,0.58-0.578,0.58h-6.754c-0.317,0-0.571-0.259-0.571-0.58v-5.407     c0-0.312,0.254-0.569,0.571-0.569h6.754c0.317,0,0.578,0.258,0.578,0.569V194.962z"/>
			<path fill="#276FA0" d="M310.45,203.626c0,0.319-0.259,0.575-0.578,0.575h-6.747c-0.319,0-0.579-0.256-0.579-0.575v-5.405     c0-0.32,0.259-0.581,0.579-0.581h6.747c0.319,0,0.578,0.261,0.578,0.581V203.626z"/>
			<path fill="#276FA0" d="M305.395,212.287c0,0.316-0.26,0.571-0.578,0.571h-6.754c-0.317,0-0.571-0.255-0.571-0.571v-5.407     c0-0.319,0.254-0.58,0.571-0.58h6.754c0.317,0,0.578,0.261,0.578,0.58V212.287z"/>
			<path fill="#276FA0" d="M309.338,220.94c0,0.322-0.254,0.58-0.573,0.58h-6.752c-0.321,0-0.574-0.258-0.574-0.58v-5.396     c0-0.316,0.253-0.577,0.574-0.577h6.752c0.319,0,0.573,0.261,0.573,0.577V220.94z"/>
			<path fill="#276FA0" d="M305.395,229.609c0,0.31-0.26,0.577-0.578,0.577h-6.754c-0.317,0-0.571-0.268-0.571-0.577v-5.411     c0-0.314,0.254-0.57,0.571-0.57h6.754c0.317,0,0.578,0.256,0.578,0.57V229.609z"/>
			<path fill="#276FA0" d="M305.395,238.272c0,0.311-0.26,0.572-0.578,0.572h-6.754c-0.317,0-0.571-0.262-0.571-0.572v-5.41     c0-0.317,0.254-0.575,0.571-0.575h6.754c0.317,0,0.578,0.258,0.578,0.575V238.272z"/>
			<path fill="#276FA0" d="M315.523,194.962c0,0.321-0.255,0.58-0.58,0.58h-6.75c-0.315,0-0.57-0.259-0.57-0.58v-5.407     c0-0.312,0.254-0.569,0.57-0.569h6.75c0.324,0,0.58,0.258,0.58,0.569V194.962z"/>
			<path fill="#276FA0" d="M320.58,203.626c0,0.319-0.255,0.575-0.576,0.575h-6.748c-0.32,0-0.581-0.256-0.581-0.575v-5.405     c0-0.32,0.26-0.581,0.581-0.581h6.748c0.321,0,0.576,0.261,0.576,0.581V203.626z"/>
			<path fill="#276FA0" d="M315.523,212.287c0,0.316-0.255,0.571-0.58,0.571h-6.75c-0.315,0-0.57-0.255-0.57-0.571v-5.407     c0-0.319,0.254-0.58,0.57-0.58h6.75c0.324,0,0.58,0.261,0.58,0.58V212.287z"/>
			<path fill="#276FA0" d="M319.471,220.94c0,0.322-0.258,0.58-0.581,0.58h-6.748c-0.316,0-0.573-0.258-0.573-0.58v-5.396     c0-0.316,0.257-0.577,0.573-0.577h6.748c0.323,0,0.581,0.261,0.581,0.577V220.94z"/>
			<path fill="#276FA0" d="M315.523,229.609c0,0.31-0.255,0.577-0.58,0.577h-6.75c-0.315,0-0.57-0.268-0.57-0.577v-5.411     c0-0.314,0.254-0.57,0.57-0.57h6.75c0.324,0,0.58,0.256,0.58,0.57V229.609z"/>
			<path fill="#276FA0" d="M325.653,194.962c0,0.321-0.257,0.58-0.576,0.58h-6.75c-0.318,0-0.572-0.259-0.572-0.58v-5.407     c0-0.312,0.254-0.569,0.572-0.569h6.75c0.319,0,0.576,0.258,0.576,0.569V194.962z"/>
			<path fill="#276FA0" d="M330.713,203.626c0,0.319-0.26,0.575-0.579,0.575h-6.746c-0.323,0-0.578-0.256-0.578-0.575v-5.405     c0-0.32,0.255-0.581,0.578-0.581h6.746c0.319,0,0.579,0.261,0.579,0.581V203.626z"/>
			<path fill="#276FA0" d="M325.653,212.287c0,0.316-0.257,0.571-0.576,0.571h-6.75c-0.318,0-0.572-0.255-0.572-0.571v-5.407     c0-0.319,0.254-0.58,0.572-0.58h6.75c0.319,0,0.576,0.261,0.576,0.58V212.287z"/>
			<path fill="#276FA0" d="M329.599,220.94c0,0.322-0.255,0.58-0.575,0.58h-6.751c-0.319,0-0.57-0.258-0.57-0.58v-5.396     c0-0.316,0.25-0.577,0.57-0.577h6.751c0.32,0,0.575,0.261,0.575,0.577V220.94z"/>
			<path fill="#276FA0" d="M325.653,229.609c0,0.31-0.257,0.577-0.576,0.577h-6.75c-0.318,0-0.572-0.268-0.572-0.577v-5.411     c0-0.314,0.254-0.57,0.572-0.57h6.75c0.319,0,0.576,0.256,0.576,0.57V229.609z"/>
			<path fill="#276FA0" d="M335.788,194.962c0,0.321-0.26,0.58-0.577,0.58h-6.756c-0.318,0-0.573-0.259-0.573-0.58v-5.407     c0-0.312,0.255-0.569,0.573-0.569h6.756c0.317,0,0.577,0.258,0.577,0.569V194.962z"/>
			<path fill="#276FA0" d="M340.848,203.626c0,0.319-0.258,0.575-0.58,0.575h-6.754c-0.315,0-0.573-0.256-0.573-0.575v-5.405     c0-0.32,0.258-0.581,0.573-0.581h6.754c0.322,0,0.58,0.261,0.58,0.581V203.626z"/>
			<path fill="#276FA0" d="M335.788,212.287c0,0.316-0.26,0.571-0.577,0.571h-6.756c-0.318,0-0.573-0.255-0.573-0.571v-5.407     c0-0.319,0.255-0.58,0.573-0.58h6.756c0.317,0,0.577,0.261,0.577,0.58V212.287z"/>
			<path fill="#276FA0" d="M339.733,220.94c0,0.322-0.256,0.58-0.574,0.58h-6.754c-0.316,0-0.575-0.258-0.575-0.58v-5.396     c0-0.316,0.259-0.577,0.575-0.577h6.754c0.318,0,0.574,0.261,0.574,0.577V220.94z"/>
			<path fill="#276FA0" d="M335.788,229.609c0,0.31-0.26,0.577-0.577,0.577h-6.756c-0.318,0-0.573-0.268-0.573-0.577v-5.411     c0-0.314,0.255-0.57,0.573-0.57h6.756c0.317,0,0.577,0.256,0.577,0.57V229.609z"/>
			<path fill="#276FA0" d="M345.919,194.962c0,0.321-0.256,0.58-0.578,0.58h-6.754c-0.313,0-0.574-0.259-0.574-0.58v-5.407     c0-0.312,0.262-0.569,0.574-0.569h6.754c0.322,0,0.578,0.258,0.578,0.569V194.962z"/>
			<path fill="#276FA0" d="M350.976,203.626c0,0.319-0.258,0.575-0.574,0.575h-6.756c-0.314,0-0.571-0.256-0.571-0.575v-5.405     c0-0.32,0.257-0.581,0.571-0.581h6.756c0.316,0,0.574,0.261,0.574,0.581V203.626z"/>
			<path fill="#276FA0" d="M345.919,212.287c0,0.316-0.256,0.571-0.578,0.571h-6.754c-0.313,0-0.574-0.255-0.574-0.571v-5.407     c0-0.319,0.262-0.58,0.574-0.58h6.754c0.322,0,0.578,0.261,0.578,0.58V212.287z"/>
			<path fill="#276FA0" d="M349.861,220.94c0,0.322-0.25,0.58-0.571,0.58h-6.754c-0.316,0-0.572-0.258-0.572-0.58v-5.396     c0-0.316,0.256-0.577,0.572-0.577h6.754c0.321,0,0.571,0.261,0.571,0.577V220.94z"/>
			<path fill="#276FA0" d="M345.919,229.609c0,0.31-0.256,0.577-0.578,0.577h-6.754c-0.313,0-0.574-0.268-0.574-0.577v-5.411     c0-0.314,0.262-0.57,0.574-0.57h6.754c0.322,0,0.578,0.256,0.578,0.57V229.609z"/>
			<path fill="#276FA0" d="M356.047,194.962c0,0.321-0.259,0.58-0.579,0.58h-6.748c-0.313,0-0.576-0.259-0.576-0.58v-5.407     c0-0.312,0.263-0.569,0.576-0.569h6.748c0.32,0,0.579,0.258,0.579,0.569V194.962z"/>
			<path fill="#276FA0" d="M361.104,203.626c0,0.319-0.253,0.575-0.576,0.575h-6.751c-0.316,0-0.575-0.256-0.575-0.575v-5.405     c0-0.32,0.259-0.581,0.575-0.581h6.751c0.323,0,0.576,0.261,0.576,0.581V203.626z"/>
			<path fill="#276FA0" d="M356.047,212.287c0,0.316-0.259,0.571-0.579,0.571h-6.748c-0.313,0-0.576-0.255-0.576-0.571v-5.407     c0-0.319,0.263-0.58,0.576-0.58h6.748c0.32,0,0.579,0.261,0.579,0.58V212.287z"/>
			<path fill="#276FA0" d="M359.995,220.94c0,0.322-0.253,0.58-0.571,0.58h-6.756c-0.316,0-0.574-0.258-0.574-0.58v-5.396     c0-0.316,0.258-0.577,0.574-0.577h6.756c0.318,0,0.571,0.261,0.571,0.577V220.94z"/>
			<path fill="#276FA0" d="M356.047,229.609c0,0.31-0.259,0.577-0.579,0.577h-6.748c-0.313,0-0.576-0.268-0.576-0.577v-5.411     c0-0.314,0.263-0.57,0.576-0.57h6.748c0.32,0,0.579,0.256,0.579,0.57V229.609z"/>
			<path fill="#276FA0" d="M356.047,238.272c0,0.311-0.259,0.572-0.579,0.572h-6.748c-0.313,0-0.576-0.262-0.576-0.572v-5.41     c0-0.317,0.263-0.575,0.576-0.575h6.748c0.32,0,0.579,0.258,0.579,0.575V238.272z"/>
			<path fill="#276FA0" d="M366.179,194.962c0,0.321-0.26,0.58-0.577,0.58h-6.75c-0.32,0-0.58-0.259-0.58-0.58v-5.407     c0-0.312,0.26-0.569,0.58-0.569h6.75c0.317,0,0.577,0.258,0.577,0.569V194.962z"/>
			<path fill="#276FA0" d="M371.239,203.626c0,0.319-0.261,0.575-0.58,0.575h-6.751c-0.315,0-0.573-0.256-0.573-0.575v-5.405     c0-0.32,0.258-0.581,0.573-0.581h6.751c0.319,0,0.58,0.261,0.58,0.581V203.626z"/>
			<path fill="#276FA0" d="M366.179,212.287c0,0.316-0.26,0.571-0.577,0.571h-6.75c-0.32,0-0.58-0.255-0.58-0.571v-5.407     c0-0.319,0.26-0.58,0.58-0.58h6.75c0.317,0,0.577,0.261,0.577,0.58V212.287z"/>
			<path fill="#276FA0" d="M370.129,220.94c0,0.322-0.258,0.58-0.577,0.58h-6.756c-0.319,0-0.571-0.258-0.571-0.58v-5.396     c0-0.316,0.252-0.577,0.571-0.577h6.756c0.319,0,0.577,0.261,0.577,0.577V220.94z"/>
			<path fill="#276FA0" d="M366.179,238.272c0,0.311-0.26,0.572-0.577,0.572h-6.75c-0.32,0-0.58-0.262-0.58-0.572v-5.41     c0-0.317,0.26-0.575,0.58-0.575h6.75c0.317,0,0.577,0.258,0.577,0.575V238.272z"/>
			<path fill="#276FA0" d="M386.43,203.626c0,0.319-0.427,0.575-0.946,0.575h-11.075c-0.52,0-0.943-0.256-0.943-0.575v-5.405     c0-0.32,0.424-0.581,0.943-0.581h11.075c0.52,0,0.946,0.261,0.946,0.581V203.626z"/>
			<path fill="#276FA0" d="M376.308,212.287c0,0.316-0.259,0.571-0.573,0.571h-6.753c-0.319,0-0.58-0.255-0.58-0.571v-5.407     c0-0.319,0.261-0.58,0.58-0.58h6.753c0.314,0,0.573,0.261,0.573,0.58V212.287z"/>
			<path fill="#276FA0" d="M376.308,238.272c0,0.311-0.259,0.572-0.573,0.572h-6.753c-0.319,0-0.58-0.262-0.58-0.572v-5.41     c0-0.317,0.261-0.575,0.58-0.575h6.753c0.314,0,0.573,0.258,0.573,0.575V238.272z"/>
			<path fill="#276FA0" d="M386.44,194.962c0,0.321-0.591,0.58-1.318,0.58h-15.41c-0.73,0-1.317-0.259-1.317-0.58v-5.407     c0-0.312,0.587-0.569,1.317-0.569h15.41c0.728,0,1.318,0.258,1.318,0.569V194.962z"/>
			<path fill="#276FA0" d="M386.437,212.287c0,0.316-0.256,0.571-0.573,0.571h-6.752c-0.319,0-0.579-0.255-0.579-0.571v-5.407     c0-0.319,0.26-0.58,0.579-0.58h6.752c0.317,0,0.573,0.261,0.573,0.58V212.287z"/>
			<path fill="#276FA0" d="M386.43,220.94c0,0.322-0.48,0.58-1.065,0.58H372.92c-0.584,0-1.063-0.258-1.063-0.58v-5.396     c0-0.316,0.479-0.577,1.063-0.577h12.444c0.585,0,1.065,0.261,1.065,0.577V220.94z"/>
			<path fill="#276FA0" d="M386.437,238.272c0,0.311-0.256,0.572-0.573,0.572h-6.752c-0.319,0-0.579-0.262-0.579-0.572v-5.41     c0-0.317,0.26-0.575,0.579-0.575h6.752c0.317,0,0.573,0.258,0.573,0.575V238.272z"/>
			<path fill="#276FA0" d="M345.917,236.834c0,1.115-0.897,2.011-2.003,2.011h-34.287c-1.109,0-2.012-0.896-2.012-2.011v-2.346     c0-1.108,0.902-2.004,2.012-2.004h34.287c1.105,0,2.003,0.896,2.003,2.004V236.834z"/>
			<path fill="#276FA0" d="M295.259,228.174c0,1.111-0.897,2.013-2.005,2.013h-24.151c-1.108,0-2.003-0.901-2.003-2.013v-2.538     c0-1.112,0.896-2.008,2.003-2.008h24.151c1.107,0,2.005,0.896,2.005,2.008V228.174z"/>
			<path fill="#276FA0" d="M386.437,228.174c0,1.111-0.894,2.013-2.005,2.013h-24.146c-1.115,0-2.014-0.901-2.014-2.013v-2.538     c0-1.112,0.898-2.008,2.014-2.008h24.146c1.111,0,2.005,0.896,2.005,2.008V228.174z"/>
		</g>
		<path fill="#414042" stroke="#414042" stroke-width="1.6271" stroke-miterlimit="10" d="M402.65,168.978H253.653    c-1.333,0-2.417,1.08-2.417,2.411v103.232c0,1.333,1.084,2.418,2.417,2.418H402.65c1.333,0,2.416-1.085,2.416-2.418V171.389    C405.066,170.058,403.983,168.978,402.65,168.978z M403.773,274.621c0,0.618-0.504,1.124-1.123,1.124H253.653    c-0.62,0-1.125-0.506-1.125-1.124V171.389c0-0.615,0.504-1.117,1.125-1.117H402.65c0.619,0,1.123,0.502,1.123,1.117V274.621z"/>
		<path fill="#FFFFFF" d="M415.228,170.406v-5.162c0-0.598-0.42-1.081-0.936-1.081H244.216c-0.517,0-0.936,0.483-0.936,1.081v5.162    H415.228z"/>
		<path fill="#414042" stroke="#414042" stroke-width="1.6271" stroke-miterlimit="10" d="M414.292,163.518H244.216    c-0.872,0-1.583,0.775-1.583,1.727v5.809h173.242v-5.809C415.875,164.293,415.162,163.518,414.292,163.518z M414.58,169.759    H243.926v-4.515c0-0.254,0.152-0.432,0.29-0.432h170.076c0.135,0,0.288,0.178,0.288,0.432V169.759z"/>
	</g>
	<g>
		<path fill="#45C1E3" d="M452.868,71.29l-0.123-4.744c0-1-0.914-1.944-2.049-1.944H434.31c-1.132,0-2.05,0.945-2.05,1.944    l-0.123,4.744H452.868z"/>
		<polygon fill="#E6E7E8" points="442.501,69.324 437.97,63.486 447.142,63.486   "/>
		<path fill="#FFFFFF" d="M447.577,60.142c0,3.078-2.495,5.574-5.573,5.574l0,0c-3.079,0-5.575-2.496-5.575-5.574v-4.459    c0-3.079,2.496-5.574,5.575-5.574l0,0c3.078,0,5.573,2.495,5.573,5.574V60.142z"/>
		<path fill="#58595B" d="M436.576,55.226c0-4.457,2.79-6.231,6.232-6.231h0.15c2.55,0,5.389,2.182,5.703,4.574    c0.243,1.836-3.76-0.318-4.584-1.646c-0.061-0.098-0.156,0.276-0.234,0.374C440.571,56.418,436.576,55.226,436.576,55.226z"/>
		<path fill="#414042" d="M450.696,64.042h-3.555l-0.009-0.007c1.306-1.222,2.128-2.951,2.128-4.874v-3.758    c0-3.686-2.999-6.682-6.684-6.682h-0.152c-3.684,0-6.684,2.997-6.684,6.682v3.758c0,1.927,0.825,3.658,2.135,4.88h-3.566    c-1.378,0-2.501,1.106-2.501,2.457l-0.133,5.654h21.653l-0.134-5.643C453.195,65.148,452.074,64.042,450.696,64.042z     M442.425,49.622h0.152c2.509,0,4.644,1.609,5.442,3.848c-1.141,0.527-3.21-0.91-3.958-1.549l-0.412-0.355l-0.273,0.469    c-1.903,3.292-5.628,2.666-6.648,2.422C437.182,51.718,439.56,49.622,442.425,49.622z M436.644,59.161v-3.758    c0-0.018,0.002-0.032,0.002-0.048c0.411,0.086,1.078,0.192,1.872,0.192c1.673,0,3.886-0.475,5.36-2.619    c0.872,0.667,2.873,1.986,4.38,1.415c0.064,0.344,0.099,0.698,0.099,1.06v3.758c0,3.187-2.59,5.78-5.779,5.78h-0.152    C439.235,64.941,436.644,62.348,436.644,59.161z M445.789,65.018l-3.285,4.13l-3.149-4.058c0.921,0.479,1.963,0.753,3.07,0.753    h0.152C443.741,65.843,444.835,65.542,445.789,65.018z M432.599,71.25l0.112-4.741c0-0.88,0.702-1.568,1.599-1.568h3.79    l4.397,5.666L447,64.941h3.696c0.898,0,1.599,0.688,1.599,1.578l0.112,4.731H432.599z M438.896,57.282    c0-0.249,0.203-0.451,0.451-0.451h0.901c0.248,0,0.449,0.202,0.449,0.451c0,0.25-0.201,0.45-0.449,0.45h-0.901    C439.099,57.732,438.896,57.531,438.896,57.282z M444.303,57.282c0-0.249,0.203-0.451,0.451-0.451h0.902    c0.248,0,0.449,0.202,0.449,0.451c0,0.25-0.201,0.45-0.449,0.45h-0.902C444.506,57.732,444.303,57.531,444.303,57.282z"/>
	</g>
	<path fill="#414042" d="M439.996,119.978c0,0.188-0.151,0.342-0.341,0.342h-1.519v1.517c0,0.19-0.151,0.344-0.343,0.343   c-0.189,0.001-0.343-0.153-0.343-0.343v-1.517h-1.518c-0.191,0-0.343-0.155-0.342-0.342c0-0.191,0.15-0.344,0.342-0.344h1.519   v-1.518c-0.001-0.191,0.152-0.344,0.342-0.342c0.189-0.001,0.343,0.151,0.343,0.342v1.518h1.519   C439.845,119.634,439.997,119.786,439.996,119.978z"/>
	<path fill="#FFFFFF" d="M237.509,36.968c0,0.227-0.182,0.409-0.409,0.408h-1.809v1.81c0,0.224-0.179,0.407-0.406,0.406   c-0.225,0.002-0.409-0.182-0.409-0.406v-1.81h-1.808c-0.228,0.001-0.409-0.184-0.409-0.408c0-0.227,0.181-0.41,0.409-0.41h1.81   V34.75c-0.001-0.227,0.182-0.409,0.407-0.409c0.225,0,0.406,0.183,0.406,0.409v1.808h1.809   C237.327,36.558,237.51,36.742,237.509,36.968z"/>
	<path fill="#FFFFFF" d="M488.762,215.716c0,0.22-0.177,0.397-0.397,0.397h-1.756v1.757c0,0.219-0.179,0.398-0.399,0.396   c-0.218,0.003-0.396-0.177-0.396-0.396v-1.757h-1.761c-0.22,0-0.396-0.179-0.395-0.397c0-0.222,0.175-0.397,0.395-0.397h1.762   v-1.758c-0.001-0.222,0.178-0.399,0.396-0.399c0.22,0,0.399,0.178,0.399,0.396v1.759h1.756   C488.585,215.318,488.763,215.495,488.762,215.716z"/>
	<path fill="#FFFFFF" d="M181.473,171.668c0,0.223-0.179,0.406-0.405,0.405h-1.792v1.793c0,0.222-0.18,0.404-0.405,0.403   c-0.223,0.001-0.405-0.182-0.405-0.403v-1.792h-1.793c-0.225,0-0.407-0.184-0.405-0.406c0-0.226,0.18-0.404,0.405-0.404h1.795   v-1.794c-0.001-0.225,0.181-0.406,0.403-0.405c0.223-0.001,0.405,0.181,0.405,0.404v1.794h1.792   C181.294,171.264,181.477,171.444,181.473,171.668z"/>
	<path fill="#FFFFFF" d="M188.641,96.53c0,0.351-0.281,0.638-0.639,0.635h-2.821v2.825c0,0.35-0.283,0.638-0.641,0.635   c-0.348,0.003-0.635-0.285-0.635-0.635v-2.822h-2.824c-0.355,0-0.641-0.287-0.635-0.638c0-0.356,0.28-0.639,0.635-0.639h2.824   v-2.824c0-0.353,0.288-0.64,0.635-0.637c0.354-0.003,0.641,0.284,0.641,0.634v2.825h2.821   C188.36,95.891,188.646,96.177,188.641,96.53z"/>
	<path fill="#FFFFFF" d="M230.764,136.887c0,0.279-0.225,0.504-0.507,0.502h-2.236v2.238c0,0.279-0.224,0.504-0.506,0.504   c-0.277,0.003-0.504-0.225-0.504-0.504v-2.236h-2.238c-0.281,0-0.507-0.229-0.503-0.504c0-0.281,0.222-0.508,0.503-0.508h2.238   v-2.237c0-0.279,0.228-0.505,0.504-0.505c0.279,0,0.506,0.226,0.506,0.504v2.238h2.236   C230.539,136.379,230.768,136.605,230.764,136.887z"/>
	<path fill="#FFFFFF" d="M450.937,233.481c0,0.307-0.25,0.558-0.562,0.555h-2.471v2.476c0,0.307-0.247,0.558-0.559,0.558   c-0.309,0.002-0.56-0.251-0.56-0.558v-2.473h-2.474c-0.312,0-0.561-0.251-0.558-0.558c0-0.313,0.246-0.56,0.558-0.56h2.476v-2.474   c-0.002-0.311,0.249-0.559,0.558-0.559c0.308,0,0.559,0.248,0.559,0.557v2.473h2.471   C450.687,232.922,450.938,233.169,450.937,233.481z"/>
	<g>
		<path fill="#FFFFFF" d="M493.953,193.075c-1.502,0-2.725-1.221-2.725-2.723s1.223-2.723,2.725-2.723    c1.5,0,2.723,1.221,2.723,2.723S495.453,193.075,493.953,193.075z M493.953,188.706c-0.908,0-1.646,0.738-1.646,1.646    s0.738,1.646,1.646,1.646s1.646-0.738,1.646-1.646S494.861,188.706,493.953,188.706z"/>
	</g>
	<g>
		<path fill="#FFFFFF" d="M428.469,93.54c-1.502,0-2.725-1.22-2.725-2.722c0-1.503,1.223-2.724,2.725-2.724    c1.5,0,2.723,1.221,2.723,2.724C431.191,92.32,429.969,93.54,428.469,93.54z M428.469,89.17c-0.91,0-1.647,0.738-1.647,1.647    c0,0.908,0.737,1.646,1.647,1.646c0.907,0,1.646-0.738,1.646-1.646C430.114,89.909,429.376,89.17,428.469,89.17z"/>
	</g>
	<g>
		<path fill="#FFFFFF" d="M165.167,156.713c-1.5,0-2.722-1.219-2.722-2.721c0-1.504,1.222-2.725,2.722-2.725    s2.723,1.221,2.723,2.725C167.89,155.494,166.668,156.713,165.167,156.713z M165.167,152.344c-0.908,0-1.647,0.739-1.647,1.648    c0,0.907,0.739,1.645,1.647,1.645c0.908,0,1.647-0.737,1.647-1.645C166.815,153.083,166.076,152.344,165.167,152.344z"/>
	</g>
	<g>
		<path fill="#414042" d="M151.861,160.502H118.61c-0.396,0-0.718-0.322-0.718-0.717c0-0.396,0.321-0.718,0.718-0.718h33.251    c0.396,0,0.717,0.321,0.717,0.718C152.579,160.18,152.258,160.502,151.861,160.502z"/>
	</g>
	<g>
		<path fill="#414042" d="M444.847,105.915h-16.121c-0.397,0-0.717-0.32-0.717-0.717s0.319-0.717,0.717-0.717h16.121    c0.397,0,0.717,0.32,0.717,0.717S445.244,105.915,444.847,105.915z"/>
	</g>
	<g>
		<path fill="#414042" d="M456.405,105.915h-7.968c-0.396,0-0.717-0.32-0.717-0.717s0.321-0.717,0.717-0.717h7.968    c0.395,0,0.717,0.32,0.717,0.717S456.8,105.915,456.405,105.915z"/>
	</g>
	<g>
		<path fill="#414042" d="M194.069,202.285h-11.631c-0.396,0-0.717-0.321-0.717-0.716c0-0.396,0.321-0.719,0.717-0.719h11.631    c0.397,0,0.718,0.322,0.718,0.719C194.788,201.964,194.467,202.285,194.069,202.285z"/>
	</g>
	<g>
		<path fill="#414042" d="M451.614,134.354h-32.046c-0.396,0-0.717-0.32-0.717-0.717c0-0.397,0.32-0.717,0.717-0.717h32.046    c0.397,0,0.719,0.319,0.719,0.717C452.333,134.033,452.012,134.354,451.614,134.354z"/>
	</g>
	<g>
		<path fill="#414042" d="M190.957,211.75h-32.046c-0.397,0-0.717-0.32-0.717-0.717c0-0.397,0.32-0.718,0.717-0.718h32.046    c0.397,0,0.718,0.32,0.718,0.718C191.675,211.43,191.354,211.75,190.957,211.75z"/>
	</g>
	<g>
		<path fill="#414042" d="M457.172,142.04h-19.653c-0.665,0-1.202-0.32-1.202-0.717c0-0.397,0.537-0.718,1.202-0.718h19.653    c0.665,0,1.202,0.32,1.202,0.718C458.374,141.719,457.837,142.04,457.172,142.04z"/>
	</g>
	<g>
		<path fill="#414042" d="M144.833,126.825H125.18c-0.665,0-1.202-0.322-1.202-0.718s0.538-0.717,1.202-0.717h19.654    c0.664,0,1.201,0.321,1.201,0.717S145.497,126.825,144.833,126.825z"/>
	</g>
	<g>
		<path fill="#414042" d="M438.678,204.938h-14.451c-0.396,0-0.718-0.32-0.718-0.717c0-0.397,0.321-0.717,0.718-0.717h14.451    c0.396,0,0.718,0.319,0.718,0.717C439.396,204.617,439.074,204.938,438.678,204.938z"/>
	</g>
	<g>
		<path fill="#414042" d="M240.327,124.994h-29.417c-0.396,0-0.717-0.321-0.717-0.718c0-0.396,0.321-0.717,0.717-0.717h29.417    c0.397,0,0.717,0.32,0.717,0.717C241.044,124.673,240.724,124.994,240.327,124.994z"/>
	</g>
	<g>
		<path fill="#414042" d="M275.934,51.287h-32.572c-0.716,0-1.294-0.322-1.294-0.717c0-0.398,0.578-0.717,1.294-0.717h32.572    c0.715,0,1.293,0.319,1.293,0.717C277.228,50.965,276.649,51.287,275.934,51.287z"/>
	</g>
	<g>
		<path fill="#414042" d="M416.252,53.708h-23.67c-0.396,0-0.717-0.319-0.717-0.716c0-0.396,0.321-0.718,0.717-0.718h23.67    c0.396,0,0.718,0.323,0.718,0.718C416.97,53.389,416.648,53.708,416.252,53.708z"/>
	</g>
	<g>
		<path fill="#414042" d="M417.36,62.188h-39.314c-0.597,0-1.079-0.319-1.079-0.717c0-0.396,0.482-0.718,1.079-0.718h39.314    c0.596,0,1.078,0.322,1.078,0.718C418.438,61.869,417.956,62.188,417.36,62.188z"/>
	</g>
	<g>
		<path fill="#FFDFBD" d="M349.092,238.945l0.05-29.313c0.246-3.76,6.448-4.34,6.62,0.014l-0.032,17.947c0,0,0.82,1.264,0.877,0.009    l0.468-8.584c0.258-3.718,6.222-3.357,6.18-0.332l-0.014,9.264c0,0,0.513,1.249,1.086-0.228l0.016-6.782    c0.122-2.349,5.497-2.576,5.63,0.013l-0.012,6.664c0,0,0.805,2.561,1.199,0c0,0-0.051,0.118,0.009-2.424    c0.074-3.093,5.454-2.967,5.604,0.351l0.415,18.261c0,0,0.262,4.254-2.291,7.128l-0.008,8.055l-22.11-0.035v-4.858    c0,0-4.32-3.835-7.923-7.35c-3.142-3.059-3.754-18.337-3.754-18.337c5.062-0.921,6.045,1.859,6.161,4.16    c0.058,1.193,0.117,2.981,0.117,2.981l1.113,3.552L349.092,238.945z"/>
		<g>
			<path fill="#414042" d="M375.606,258.988l-1.437-0.002l0.01-8.327l0.18-0.202c2.329-2.622,2.115-6.569,2.113-6.61l-0.419-18.287     c-0.06-1.291-1.209-1.879-2.266-1.879c-0.01,0-0.021,0-0.031,0c-0.846,0.009-1.843,0.415-1.87,1.529     c-0.023,0.906-0.03,1.461-0.031,1.795l0.118,0.02l-0.104,0.702c-0.086,0.543-0.259,1.679-1.129,1.744     c-0.592,0.047-1.107-0.503-1.463-1.638l-0.034-0.216l0.011-6.664c-0.046-0.892-1.284-1.143-2.01-1.143c-0.001,0-0.001,0-0.001,0     c-1.045,0-2.148,0.438-2.186,1.169l-0.064,7.002c-0.11,0.29-0.452,1.172-1.249,1.18c-0.002,0-0.007,0-0.009,0     c-0.57,0-0.973-0.482-1.16-0.938l-0.052-0.274l0.013-9.265c0.015-1.066-1.093-1.597-2.128-1.638     c-0.912-0.032-2.504,0.345-2.617,2.023l-0.469,8.571c-0.028,0.675-0.279,1.081-0.737,1.204c-0.652,0.185-1.198-0.463-1.458-0.861     l-0.115-0.177l0.031-18.162c-0.066-1.691-1.26-2.319-2.356-2.332c-0.011,0-0.025,0-0.038,0c-1.284,0-2.689,0.824-2.791,2.368     l-0.049,29.818l-1.795,0.469l-1.351-4.395c0-0.004-0.06-1.781-0.118-2.972c-0.07-1.419-0.464-2.394-1.198-2.976     c-0.763-0.604-1.936-0.806-3.499-0.611c0.232,4.587,1.214,14.981,3.507,17.216c3.553,3.462,7.858,7.289,7.901,7.325l0.24,0.216     v5.181h-1.436v-4.538c-0.961-0.859-4.616-4.141-7.707-7.156c-3.252-3.166-3.904-17.229-3.968-18.821l-0.024-0.623l0.612-0.112     c2.293-0.417,4.066-0.147,5.265,0.799c1.063,0.844,1.647,2.198,1.739,4.027c0.054,1.036,0.104,2.509,0.116,2.898l0.284,0.907     l0.047-26.7c0.16-2.469,2.283-3.757,4.224-3.757c0.02,0,0.038,0,0.058,0c1.806,0.023,3.672,1.189,3.771,3.741l-0.016,8.678     c0.479-1.938,2.328-2.743,4.005-2.684c1.763,0.073,3.531,1.157,3.505,3.085l-0.001,1.148c0.618-0.973,1.964-1.469,3.272-1.469     h0.001c1.982,0.002,3.366,1.021,3.443,2.539l-0.003,3.157c0.468-1.099,1.603-1.812,3.057-1.828     c1.841,0.01,3.647,1.095,3.746,3.267l0.417,18.276c0.012,0.152,0.237,4.362-2.29,7.411L375.606,258.988z"/>
		</g>
		<rect x="351.383" y="256.912" fill="#45C1E3" width="25.984" height="34.663"/>
		<rect x="359.149" y="256.912" fill="#6ACDE9" width="18.218" height="34.663"/>
		<g>
			<polygon fill="#414042" points="378.085,291.575 376.649,291.575 376.649,257.628 352.1,257.628 352.1,291.575 350.666,291.575      350.666,256.194 378.085,256.194    "/>
		</g>
	</g>
	<g>
		<path fill="#FFDFBD" d="M312.119,228.372l-0.051-29.314c-0.247-3.759-6.448-4.337-6.619,0.015l0.031,17.95    c0,0-0.818,1.261-0.877,0.006l-0.467-8.584c-0.257-3.716-6.222-3.357-6.179-0.331l0.013,9.265c0,0-0.513,1.245-1.085-0.229    l-0.015-6.781c-0.123-2.35-5.499-2.577-5.632,0.011l0.012,6.666c0,0-0.805,2.562-1.199,0c0,0,0.052,0.116-0.009-2.427    c-0.073-3.09-5.452-2.963-5.603,0.351l-0.417,18.26c0,0-0.262,4.255,2.292,7.131l0.008,8.055l22.109-0.036v-4.856    c0,0,4.32-3.838,7.923-7.352c3.143-3.059,3.753-18.335,3.753-18.335c-5.062-0.923-6.045,1.857-6.161,4.156    c-0.059,1.196-0.118,2.983-0.118,2.983l-1.114,3.552L312.119,228.372z"/>
		<g>
			<path fill="#414042" d="M285.604,248.415l1.435-0.002l-0.008-8.327l-0.181-0.202c-2.33-2.622-2.115-6.57-2.112-6.609     l0.418-18.291c0.059-1.29,1.209-1.878,2.266-1.878c0.01,0,0.022,0,0.032,0c0.846,0.01,1.844,0.416,1.87,1.53     c0.022,0.908,0.029,1.46,0.031,1.795l-0.12,0.021l0.107,0.703c0.084,0.542,0.257,1.678,1.128,1.745     c0.591,0.046,1.107-0.504,1.463-1.64l0.033-0.215l-0.01-6.666c0.045-0.892,1.284-1.142,2.009-1.142c0.001,0,0.001,0,0.001,0     c1.045,0,2.148,0.438,2.187,1.167l0.063,7.005c0.112,0.288,0.455,1.172,1.25,1.179c0.003,0,0.007,0,0.01,0     c0.571,0,0.971-0.483,1.159-0.939l0.054-0.271l-0.015-9.266c-0.016-1.067,1.093-1.599,2.129-1.639     c0.911-0.03,2.502,0.344,2.617,2.022l0.467,8.572c0.031,0.675,0.28,1.081,0.739,1.203c0.653,0.186,1.198-0.46,1.457-0.859     l0.115-0.178l-0.031-18.163c0.068-1.69,1.261-2.318,2.356-2.334c0.013,0,0.027,0,0.04,0c1.285,0,2.689,0.825,2.789,2.369     l0.051,29.821l1.793,0.47l1.351-4.399c0-0.001,0.06-1.778,0.116-2.97c0.073-1.419,0.466-2.395,1.2-2.975     c0.762-0.605,1.934-0.806,3.499-0.61c-0.232,4.585-1.213,14.982-3.508,17.215c-3.551,3.464-7.856,7.29-7.899,7.326l-0.241,0.216     v5.179h1.435v-4.537c0.961-0.858,4.618-4.144,7.708-7.157c3.251-3.164,3.905-17.228,3.969-18.822l0.024-0.622l-0.613-0.111     c-2.294-0.418-4.066-0.148-5.265,0.799c-1.063,0.845-1.648,2.197-1.741,4.029c-0.052,1.033-0.102,2.507-0.115,2.896l-0.285,0.906     l-0.045-26.701c-0.16-2.466-2.284-3.755-4.224-3.755c-0.02,0-0.04,0-0.058,0c-1.805,0.024-3.671,1.19-3.772,3.742l0.015,8.675     c-0.477-1.934-2.328-2.742-4.005-2.683c-1.761,0.073-3.53,1.157-3.503,3.086l0.002,1.15c-0.618-0.974-1.965-1.47-3.274-1.47     h-0.001c-1.982,0.002-3.366,1.021-3.443,2.538l0.004,3.159c-0.467-1.102-1.604-1.813-3.058-1.83     c-1.84,0.011-3.646,1.097-3.746,3.264l-0.418,18.277c-0.009,0.154-0.237,4.365,2.292,7.413L285.604,248.415z"/>
		</g>
		<rect x="283.843" y="246.339" fill="#45C1E3" width="25.984" height="45.236"/>
		<rect x="283.843" y="246.339" fill="#6ACDE9" width="18.218" height="45.236"/>
		<g>
			<polygon fill="#414042" points="283.126,291.575 284.561,291.575 284.561,247.056 309.11,247.056 309.11,291.575      310.545,291.575 310.545,245.62 283.126,245.62    "/>
		</g>
	</g>
	<path fill="#FFFFFF" d="M413.635,104.005c-0.279-0.28-0.734-0.28-1.015,0c-0.278,0.281-0.278,0.734,0,1.016l3.064,3.067   l-3.064,3.064c-0.278,0.28-0.278,0.735,0,1.014c0.14,0.141,0.325,0.211,0.509,0.211c0.183,0,0.366-0.07,0.506-0.211l4.079-4.079   L413.635,104.005z"/>
	<path fill="#FFFFFF" d="M239.381,105.383c0.28-0.281,0.734-0.281,1.015,0c0.279,0.281,0.279,0.734,0,1.015l-3.065,3.067   l3.065,3.064c0.279,0.281,0.279,0.734,0,1.014c-0.141,0.141-0.325,0.211-0.507,0.211c-0.184,0-0.368-0.07-0.508-0.211l-4.08-4.079   L239.381,105.383z"/>
	<g>
		<rect x="253.582" y="68.957" fill="#FFFFFF" width="148.715" height="84.288"/>
		<rect x="253.582" y="145.989" fill="#45C1E3" width="148.715" height="7.256"/>
		<rect x="253.582" y="68.814" fill="#E6E7E8" width="148.715" height="7.268"/>
		<g>
			<path fill="#414042" stroke="#414042" stroke-width="1.6271" stroke-miterlimit="10" d="M403.014,153.963h-150.15V68.24h150.15     V153.963z M254.298,152.529h147.281V69.674H254.298V152.529z"/>
		</g>
		<g>
			<rect x="271.733" y="90.792" fill="#276FA0" width="81.533" height="40.606"/>
			<rect x="271.733" y="130.275" fill="#414042" width="81.533" height="1.139"/>
			<rect x="271.733" y="130.275" fill="#45C1E3" width="30.978" height="1.139"/>
			<g>
				<path fill="#FFFFFF" d="M311.96,98.392c-6.843,0-12.409,5.566-12.409,12.409c0,6.842,5.566,12.409,12.409,12.409      s12.409-5.567,12.409-12.409C324.369,103.958,318.803,98.392,311.96,98.392z M311.96,121.775      c-6.052,0-10.974-4.923-10.974-10.975s4.922-10.974,10.974-10.974c6.051,0,10.974,4.923,10.974,10.974      S318.011,121.775,311.96,121.775z"/>
				<polygon fill-rule="evenodd" clip-rule="evenodd" fill="#FFFFFF" points="307.839,105.347 307.839,117.701 318.528,111.526           "/>
			</g>
		</g>
		<rect x="271.767" y="82.419" fill="#F1F2F2" width="77.113" height="4.102"/>
		<rect x="257.857" y="82.419" fill="#F9D657" width="9.529" height="4.102"/>
		<rect x="271.767" y="136.283" fill="#E6E7E8" width="56.171" height="4.944"/>
		<rect x="358.439" y="90.792" fill="#F9D657" width="14.615" height="14.614"/>
		<rect x="358.439" y="108.086" fill="#45C1E3" width="14.615" height="14.614"/>
		<rect x="358.439" y="125.38" fill="#E6E7E8" width="14.615" height="14.614"/>
		<g>
			<g>
				<path fill="#414042" d="M392.604,92.821h-16.169c-0.396,0-0.717-0.322-0.717-0.718c0-0.396,0.32-0.717,0.717-0.717h16.169      c0.396,0,0.718,0.322,0.718,0.717C393.322,92.5,393.001,92.821,392.604,92.821z"/>
			</g>
			<g>
				<path fill="#414042" d="M392.604,97.409h-16.169c-0.396,0-0.717-0.321-0.717-0.717c0-0.397,0.32-0.718,0.717-0.718h16.169      c0.396,0,0.718,0.321,0.718,0.718C393.322,97.088,393.001,97.409,392.604,97.409z"/>
			</g>
			<g>
				<path fill="#414042" d="M385.412,101.997h-8.977c-0.396,0-0.717-0.32-0.717-0.718c0-0.396,0.32-0.717,0.717-0.717h8.977      c0.396,0,0.717,0.32,0.717,0.717C386.129,101.677,385.809,101.997,385.412,101.997z"/>
			</g>
		</g>
		<g>
			<g>
				<path fill="#414042" d="M392.514,110.181h-16.168c-0.398,0-0.719-0.32-0.719-0.716c0-0.398,0.32-0.718,0.719-0.718h16.168      c0.398,0,0.719,0.32,0.719,0.718C393.232,109.861,392.912,110.181,392.514,110.181z"/>
			</g>
			<g>
				<path fill="#414042" d="M392.514,114.77h-16.168c-0.398,0-0.719-0.321-0.719-0.718c0-0.396,0.32-0.717,0.719-0.717h16.168      c0.398,0,0.719,0.32,0.719,0.717C393.232,114.449,392.912,114.77,392.514,114.77z"/>
			</g>
			<g>
				<path fill="#414042" d="M385.321,119.358h-8.976c-0.398,0-0.719-0.322-0.719-0.717c0-0.397,0.32-0.718,0.719-0.718h8.976      c0.396,0,0.718,0.321,0.718,0.718C386.039,119.036,385.718,119.358,385.321,119.358z"/>
			</g>
		</g>
		<g>
			<g>
				<path fill="#414042" d="M392.426,127.542h-16.169c-0.396,0-0.719-0.322-0.719-0.718s0.322-0.717,0.719-0.717h16.169      c0.396,0,0.717,0.32,0.717,0.717S392.822,127.542,392.426,127.542z"/>
			</g>
			<g>
				<path fill="#414042" d="M392.426,132.13h-16.169c-0.396,0-0.719-0.321-0.719-0.718c0-0.396,0.322-0.718,0.719-0.718h16.169      c0.396,0,0.717,0.322,0.717,0.718C393.143,131.809,392.822,132.13,392.426,132.13z"/>
			</g>
			<g>
				<path fill="#414042" d="M385.231,136.717h-8.975c-0.396,0-0.719-0.32-0.719-0.716c0-0.397,0.322-0.718,0.719-0.718h8.975      c0.396,0,0.718,0.32,0.718,0.718C385.949,136.397,385.628,136.717,385.231,136.717z"/>
			</g>
		</g>
		<circle fill="#F9D657" cx="376.305" cy="72.476" r="1.414"/>
		<circle fill="#F9D657" cx="382.481" cy="72.476" r="1.414"/>
		<circle fill="#F9D657" cx="388.659" cy="72.476" r="1.415"/>
	</g>
	<g>
		<rect x="433.49" y="159.095" fill="#FFFFFF" width="43.05" height="28.699"/>
		<rect x="436.359" y="163.399" fill="#6ACDE9" width="35.876" height="21.524"/>
		<path fill="#414042" d="M432.054,159.095v30.351h44.921v-30.351H432.054z M475.762,188.232H433.27v-27.925h42.492V188.232z"/>
		<polygon fill="#A7A9AC" points="462.342,172.282 456.734,179.185 467.77,179.185   "/>
		<polygon fill="#A7A9AC" points="447.447,172.282 441.839,179.185 452.876,179.185   "/>
		<path fill="#414042" d="M462.349,171.252l-6.891,8.481h13.561L462.349,171.252z M462.333,173.195l4.188,5.323h-8.512    L462.333,173.195z"/>
		<path fill="#414042" d="M447.456,171.252l-6.893,8.481h13.563L447.456,171.252z M447.439,173.195l4.188,5.323h-8.513    L447.439,173.195z"/>
		<polygon fill="#FFFFFF" points="455.235,170.012 447.781,179.185 462.45,179.185   "/>
		<path fill="#414042" d="M455.242,168.982l-8.736,10.751H463.7L455.242,168.982z M455.228,170.926l5.975,7.593h-12.146    L455.228,170.926z"/>
		<rect x="436.359" y="179.185" fill="#45C1E3" width="35.876" height="5.739"/>
		<path fill="#F9D657" d="M466.031,167.097c0,1.346-1.092,2.436-2.437,2.436s-2.433-1.09-2.433-2.436    c0-1.344,1.088-2.432,2.433-2.432S466.031,165.753,466.031,167.097z"/>
		<path fill="#414042" d="M435.698,162.735v23.067h37.634v-23.067H435.698z M472.118,184.59H436.91v-20.641h35.208V184.59z"/>
		<rect x="436.248" y="177.92" fill="#414042" width="36.533" height="1.213"/>
	</g>
	<g>
		<path fill="#FFFFFF" d="M221.23,173.194h-0.009c1.148-1.564,1.835-3.487,1.835-5.577c0-5.21-4.226-9.435-9.436-9.435    c-2.661,0-5.058,1.103-6.773,2.875c-1.714-1.772-4.112-2.875-6.773-2.875c-5.209,0-9.435,4.225-9.435,9.435    c0,2.538,1.01,4.841,2.643,6.54l13.28,13.509l14.117-13.801c0.152-0.171,0.293-0.344,0.431-0.523L221.23,173.194z"/>
		<path fill="#414042" d="M223.573,167.617c0-5.488-4.464-9.952-9.953-9.952c-2.541,0-4.924,0.938-6.773,2.665    c-1.847-1.727-4.233-2.665-6.773-2.665c-5.486,0-9.953,4.464-9.953,9.952c0,2.58,0.99,5.028,2.791,6.897l13.642,13.884    l14.513-14.191c0.16-0.177,0.308-0.36,0.443-0.536l0.805-0.995h-0.131C223.097,171.144,223.573,169.413,223.573,167.617z     M220.803,172.889l-0.104,0.141c-0.133,0.168-0.267,0.335-0.382,0.467l-13.749,13.44l-12.917-13.138    c-1.609-1.677-2.495-3.872-2.495-6.182c0-4.919,4-8.918,8.917-8.918c2.432,0,4.706,0.966,6.402,2.716l0.372,0.385l0.371-0.385    c1.698-1.75,3.972-2.716,6.402-2.716c4.916,0,8.917,3.999,8.917,8.918C222.537,169.521,221.938,171.344,220.803,172.889z"/>
		<path fill="#414042" d="M201.093,160.879c-4.56,0-8.27,3.709-8.27,8.27c0,0.287,0.231,0.519,0.515,0.519    c0.287,0,0.518-0.231,0.518-0.519c0-3.989,3.246-7.235,7.237-7.235c0.286,0,0.518-0.231,0.518-0.517    C201.611,161.109,201.379,160.879,201.093,160.879z"/>
		<circle fill="#F9D657" cx="215.426" cy="178.687" r="9.675"/>
		<path fill="#414042" d="M215.425,168.492c-5.619,0-10.19,4.574-10.19,10.194c0,5.621,4.571,10.194,10.19,10.194    c5.621,0,10.194-4.573,10.194-10.194C225.619,173.066,221.046,168.492,215.425,168.492z M215.425,187.846    c-5.049,0-9.157-4.108-9.157-9.159c0-5.052,4.108-9.157,9.157-9.157c5.052,0,9.159,4.105,9.159,9.157    C224.584,183.737,220.477,187.846,215.425,187.846z"/>
		<path fill="#FBE69A" d="M222.209,178.687c0,3.745-3.037,6.786-6.784,6.786c-3.745,0-6.781-3.041-6.781-6.786    c0-3.75,3.036-6.782,6.781-6.782C219.173,171.904,222.209,174.937,222.209,178.687z"/>
		<g>
			<path fill="#414042" d="M214.181,177.549v-3.02h2.452v3.02h3.018v2.252h-3.018v3.039h-2.452v-3.039h-2.979v-2.252H214.181z"/>
		</g>
	</g>
	<g>
		<path fill="#F9D657" d="M192.558,127.043l-2.663-0.005l-0.106-0.472c-0.234-1.045-0.645-2.04-1.222-2.952l-0.258-0.41l1.885-1.885    c0.153-0.154,0.236-0.354,0.236-0.569s-0.083-0.417-0.235-0.568l-1.153-1.154c-0.306-0.304-0.833-0.304-1.137-0.001l-1.885,1.886    l-0.411-0.261c-0.911-0.577-1.904-0.99-2.95-1.227l-0.475-0.106v-2.663c0-0.443-0.359-0.803-0.804-0.803h-1.629    c-0.445,0-0.805,0.36-0.805,0.803v2.663l-0.473,0.106c-1.023,0.231-2,0.634-2.906,1.199l-0.41,0.257l-1.876-1.896    c-0.3-0.303-0.832-0.304-1.135-0.004l-1.162,1.146c-0.313,0.313-0.316,0.823-0.005,1.139l1.875,1.891l-0.261,0.409    c-0.577,0.906-0.994,1.899-1.239,2.948l-0.109,0.471l-2.662-0.01c-0.445,0-0.804,0.359-0.805,0.799l-0.008,1.634    c-0.001,0.213,0.083,0.417,0.235,0.569c0.149,0.151,0.351,0.235,0.565,0.235l2.661,0.012l0.105,0.472    c0.233,1.05,0.645,2.047,1.216,2.956l0.258,0.41l-1.893,1.881c-0.152,0.152-0.235,0.353-0.237,0.566    c-0.001,0.215,0.084,0.419,0.236,0.572l1.147,1.155c0.3,0.308,0.835,0.309,1.134,0.006l1.894-1.88l0.409,0.261    c0.908,0.579,1.9,0.994,2.95,1.234l0.471,0.109l-0.008,2.661c-0.002,0.443,0.358,0.806,0.801,0.807l1.63,0.003l0.003,0.606v-0.606    c0.442,0,0.803-0.358,0.805-0.8l0.006-2.662l0.472-0.106c1.042-0.232,2.037-0.643,2.956-1.219l0.411-0.258l1.882,1.89    c0.302,0.303,0.831,0.306,1.136,0l1.157-1.149c0.151-0.152,0.235-0.354,0.236-0.569c0-0.214-0.084-0.416-0.235-0.568l-1.879-1.89    l0.259-0.409c0.578-0.911,0.991-1.904,1.229-2.95l0.108-0.472l2.665,0.003c0.442,0,0.803-0.359,0.804-0.804l0.001-1.629    C193.359,127.405,193,127.044,192.558,127.043z M180.564,132.657c-2.215,0-4.012-1.796-4.012-4.012    c0-2.215,1.796-4.011,4.012-4.011s4.012,1.796,4.012,4.011C184.576,130.861,182.78,132.657,180.564,132.657z"/>
		<path fill="#414042" d="M185.646,128.644c0-2.8-2.28-5.077-5.08-5.077s-5.079,2.277-5.079,5.077s2.279,5.077,5.079,5.077    S185.646,131.443,185.646,128.644z M180.566,132.508c-2.131,0-3.866-1.734-3.866-3.865c0-2.131,1.734-3.865,3.866-3.865    c2.133,0,3.867,1.734,3.867,3.865C184.433,130.774,182.699,132.508,180.566,132.508z M192.561,125.83l-1.706-0.001    c-0.232-0.853-0.572-1.672-1.012-2.444l1.208-1.208c0.381-0.381,0.591-0.888,0.591-1.426c0-0.54-0.209-1.046-0.59-1.426    l-1.154-1.156c-0.763-0.761-2.089-0.761-2.851,0l-1.207,1.207c-0.771-0.441-1.587-0.781-2.441-1.015v-1.706    c0-1.111-0.905-2.017-2.018-2.017h-1.629c-1.113,0-2.019,0.905-2.019,2.017v1.705c-0.83,0.229-1.629,0.558-2.388,0.986    l-1.203-1.215c-0.759-0.764-2.09-0.769-2.852-0.012l-1.162,1.148c-0.789,0.783-0.794,2.063-0.013,2.851l1.202,1.214    c-0.441,0.766-0.785,1.583-1.024,2.435l-1.714-0.006c-1.109,0-2.013,0.901-2.014,2.008l-0.01,1.633    c-0.001,0.54,0.208,1.047,0.587,1.429c0.381,0.381,0.887,0.593,1.422,0.593l1.701,0.007c0.233,0.856,0.571,1.676,1.008,2.447    l-1.211,1.203c-0.382,0.377-0.594,0.883-0.595,1.42c-0.003,0.541,0.206,1.05,0.586,1.433l1.147,1.157    c0.76,0.764,2.094,0.77,2.854,0.01l1.208-1.203c0.77,0.441,1.587,0.783,2.441,1.021l-0.005,1.706    c-0.001,1.112,0.9,2.02,2.012,2.023l1.636,0.004c1.109,0,2.014-0.901,2.017-2.01l0.005-1.705c0.849-0.232,1.667-0.569,2.443-1.009    l1.205,1.211c0.758,0.764,2.089,0.768,2.853,0.005l1.157-1.152c0.381-0.379,0.592-0.885,0.593-1.424    c0.001-0.537-0.209-1.044-0.589-1.425l-1.203-1.211c0.441-0.769,0.782-1.587,1.017-2.439l1.71,0.001    c1.108,0,2.012-0.903,2.017-2.014l0.001-1.631C194.573,126.737,193.67,125.831,192.561,125.83z M193.358,129.476    c-0.001,0.444-0.362,0.804-0.804,0.804l-2.665-0.003l-0.108,0.472c-0.238,1.045-0.651,2.039-1.229,2.95l-0.259,0.409l1.879,1.89    c0.151,0.152,0.235,0.354,0.235,0.568c-0.001,0.216-0.085,0.417-0.236,0.569l-1.157,1.149c-0.305,0.306-0.834,0.303-1.136,0    l-1.882-1.89l-0.411,0.258c-0.919,0.576-1.914,0.986-2.956,1.219l-0.472,0.106l-0.006,2.662c-0.001,0.441-0.363,0.8-0.805,0.8    v0.606l-0.003-0.606l-1.63-0.003c-0.443-0.001-0.804-0.364-0.801-0.807l0.008-2.661l-0.471-0.109    c-1.05-0.241-2.042-0.656-2.95-1.234l-0.409-0.261l-1.894,1.88c-0.299,0.303-0.833,0.302-1.134-0.006l-1.147-1.155    c-0.152-0.153-0.237-0.357-0.236-0.572c0.002-0.214,0.085-0.415,0.237-0.566l1.893-1.881l-0.258-0.41    c-0.572-0.909-0.983-1.906-1.216-2.956l-0.105-0.472l-2.661-0.012c-0.214,0-0.416-0.084-0.565-0.235    c-0.152-0.152-0.236-0.356-0.235-0.569l0.008-1.634c0.001-0.44,0.36-0.799,0.805-0.799l2.662,0.01l0.109-0.471    c0.245-1.048,0.662-2.042,1.239-2.948l0.261-0.409l-1.875-1.891c-0.311-0.315-0.309-0.826,0.005-1.139l1.162-1.146    c0.303-0.3,0.835-0.299,1.135,0.004l1.876,1.896l0.41-0.257c0.905-0.564,1.883-0.968,2.906-1.199l0.473-0.106v-2.663    c0-0.443,0.36-0.803,0.805-0.803h1.629c0.445,0,0.804,0.36,0.804,0.803v2.663l0.475,0.106c1.046,0.237,2.039,0.65,2.95,1.227    l0.411,0.261l1.885-1.886c0.304-0.302,0.831-0.302,1.137,0.001l1.153,1.154c0.151,0.151,0.235,0.354,0.235,0.568    s-0.083,0.415-0.236,0.569l-1.885,1.885l0.258,0.41c0.578,0.912,0.988,1.907,1.222,2.952l0.106,0.472l2.663,0.005    c0.441,0.001,0.801,0.362,0.801,0.804L193.358,129.476z M186.828,132.467c-0.948,1.708-2.559,3.007-4.422,3.562    c-0.058,0.016-0.117,0.025-0.173,0.025c-0.262,0-0.503-0.171-0.581-0.435c-0.096-0.321,0.087-0.658,0.407-0.754    c1.561-0.465,2.916-1.553,3.708-2.985c0.164-0.295,0.537-0.395,0.824-0.236C186.884,131.806,186.99,132.174,186.828,132.467z     M174.383,126.748c-0.089,0.248-0.323,0.401-0.571,0.401c-0.068,0-0.138-0.012-0.205-0.036c-0.315-0.112-0.479-0.459-0.365-0.775    c0.921-2.573,3.054-4.506,5.703-5.174c0.328-0.081,0.653,0.118,0.737,0.442c0.08,0.325-0.117,0.654-0.442,0.737    C176.984,122.909,175.168,124.557,174.383,126.748z"/>
	</g>
	<g>
		<path fill="#FFFFFF" d="M513.506,120.837l2.355,8.026c1.212,4.128-1.611,8.457-5.738,9.667l-0.131,0.039    c-4.128,1.21-8.295-1.065-9.506-5.193l-2.354-8.026L513.506,120.837z"/>
		<path fill="#F9D657" d="M515.209,134.225c-1.053,2.414-0.959,3.055-5.086,4.267l-0.131,0.058c-4.128,1.21-8.296-1.134-9.506-5.26    l-0.499-1.765L515.209,134.225z"/>
		<path fill="#414042" d="M517.691,146.624c-0.082-0.279-0.37-0.439-0.651-0.355l-3.565,1.044l-2.368-8.072    c1.798-0.721,3.271-2.088,4.197-3.92c1.01-1.997,1.233-4.357,0.609-6.473l-2.37-8.079l-16.385,4.81l2.371,8.078    c1.058,3.606,4.647,6.208,8.532,6.188c0.701-0.003,1.385-0.104,2.044-0.283l2.359,8.048l-3.564,1.048    c-0.277,0.082-0.438,0.372-0.355,0.651c0.067,0.23,0.278,0.379,0.507,0.378c0.048,0,0.097-0.007,0.145-0.021l8.141-2.391    C517.614,147.194,517.773,146.902,517.691,146.624z M509.979,138.517c-0.618,0.182-1.264,0.274-1.922,0.278    c-3.371,0.018-6.603-2.318-7.519-5.434l-2.073-7.069l14.368-4.216l2.072,7.07c0.547,1.861,0.352,3.938-0.54,5.701    c-0.911,1.805-2.423,3.094-4.257,3.632L509.979,138.517z"/>
		<path fill="#FFFFFF" d="M487.674,120.97l-2.272,8.05c-1.168,4.141,1.698,8.44,5.838,9.608l0.131,0.038    c4.14,1.167,8.284-1.15,9.451-5.291l2.273-8.05L487.674,120.97z"/>
		<path fill="#F9D657" d="M485.858,132.083c-0.332,3.934,1.241,5.376,5.381,6.544l0.131,0.038c4.14,1.167,8.284-1.15,9.451-5.291    l0.481-1.701L485.858,132.083z"/>
		<path fill="#414042" d="M487.638,120.903l-2.288,8.103c-0.6,2.122-0.354,4.48,0.676,6.466c0.944,1.821,2.434,3.175,4.239,3.877    l-2.559,9.056l1.013,0.287l2.549-9.032c0.663,0.172,1.348,0.266,2.045,0.262c3.886-0.02,7.447-2.658,8.468-6.275l2.289-8.102    L487.638,120.903z M500.771,133.359c-0.884,3.125-4.091,5.494-7.463,5.511c-0.658,0.003-1.305-0.083-1.925-0.258l-0.129-0.035    c-1.841-0.521-3.365-1.795-4.296-3.591c-0.906-1.752-1.125-3.828-0.598-5.695l2-7.091l14.411,4.068L500.771,133.359z"/>
		<path fill="#414042" d="M489.659,125.039c0.078-0.279-0.084-0.57-0.363-0.648c-0.287-0.083-0.571,0.084-0.649,0.362l-1.195,4.243    c-0.515,1.82-0.412,3.811,0.287,5.604c0.08,0.209,0.279,0.336,0.493,0.335c0.062,0,0.125-0.012,0.186-0.036    c0.271-0.105,0.405-0.409,0.301-0.68c-0.618-1.583-0.707-3.336-0.256-4.938L489.659,125.039z"/>
		<g>
			<path fill="#414042" d="M512.813,134.809c-0.063,0-0.127-0.011-0.188-0.034c-0.273-0.102-0.409-0.405-0.308-0.677     c0.603-1.589,0.675-3.343,0.206-4.939l-1.241-4.23c-0.081-0.278,0.079-0.571,0.354-0.652c0.282-0.086,0.571,0.078,0.654,0.355     l1.238,4.23c0.534,1.815,0.453,3.807-0.228,5.607C513.223,134.678,513.025,134.808,512.813,134.809z"/>
		</g>
		<g>
			<path fill="#414042" d="M492.425,149.773c-0.048,0-0.096-0.006-0.145-0.02l-8.162-2.307c-0.282-0.079-0.443-0.369-0.365-0.648     c0.079-0.279,0.364-0.443,0.649-0.361l8.164,2.306c0.276,0.079,0.44,0.368,0.361,0.647     C492.863,149.62,492.653,149.772,492.425,149.773z"/>
		</g>
	</g>
	<path fill="#414042" d="M490.3,93.608h-3.142v3.142h3.142V93.608z M488.159,95.749v-1.143h1.142v1.143H488.159z M494.156,97.178   h-3.142v3.14h3.142V97.178z M492.013,99.319v-1.142h1.143v1.142H492.013z M494.156,93.608h-3.142v3.142h3.142V93.608z    M492.013,95.749v-1.143h1.143v1.143H492.013z M478.735,100.747h-3.142v3.141h3.142V100.747z M476.594,102.888v-1.142h1.142v1.142   H476.594z M490.3,97.178h-3.142v3.14h3.142V97.178z M488.159,99.319v-1.142h1.142v1.142H488.159z M482.59,100.747h-3.142v3.141   h3.142V100.747z M480.448,102.888v-1.142h1.143v1.142H480.448z M482.59,97.178h-3.142v3.14h3.142V97.178z M480.448,99.319v-1.142   h1.143v1.142H480.448z M492.87,85.041v-2.508c0-0.979-0.796-1.774-1.774-1.774h-0.308c-0.979,0-1.772,0.796-1.772,1.774v2.508   h-8.996v-2.508c0-0.979-0.794-1.774-1.771-1.774h-0.311c-0.978,0-1.772,0.796-1.772,1.774v2.508h-4.284v21.702h25.271V85.041   H492.87z M477.938,81.758h0.311c0.425,0,0.773,0.348,0.773,0.775v2.508h-1.856v-2.508   C477.166,82.105,477.513,81.758,477.938,81.758z M490.788,81.758h0.308c0.427,0,0.775,0.348,0.775,0.775v2.508h-1.857v-2.508   C490.014,82.105,490.361,81.758,490.788,81.758z M496.153,91.039v14.703h-23.271V91.039H496.153z M472.883,90.039V86.04h23.271   v3.999H472.883z M478.735,97.178h-3.142v3.14h3.142V97.178z M476.594,99.319v-1.142h1.142v1.142H476.594z M486.444,93.608h-3.141   v3.142h3.141V93.608z M484.305,95.749v-1.143h1.141v1.143H484.305z M486.444,97.178h-3.141v3.14h3.141V97.178z M484.305,99.319   v-1.142h1.141v1.142H484.305z M482.59,93.608h-3.142v3.142h3.142V93.608z M480.448,95.749v-1.143h1.143v1.143H480.448z    M486.444,100.747h-3.141v3.141h3.141V100.747z M484.305,102.888v-1.142h1.141v1.142H484.305z"/>
	<path fill="#FFFFFF" d="M397.93,21.677c-0.105-0.066-0.18-0.169-0.208-0.292c-0.029-0.122-0.007-0.246,0.059-0.353   c0.084-0.137,0.231-0.22,0.396-0.22c0.087,0,0.171,0.025,0.245,0.067l2.759,1.708c0.104,0.064,0.182,0.167,0.211,0.288   c0.029,0.123,0.009,0.249-0.059,0.356c-0.085,0.139-0.234,0.222-0.397,0.222c-0.085,0-0.168-0.024-0.246-0.068L397.93,21.677z    M401.307,27.211c0.034-0.12,0.021-0.247-0.041-0.354c-0.079-0.15-0.237-0.243-0.408-0.243c-0.079,0-0.156,0.019-0.228,0.057   l-2.845,1.554c-0.11,0.061-0.19,0.158-0.226,0.278c-0.035,0.12-0.021,0.245,0.038,0.355c0.08,0.15,0.238,0.244,0.411,0.244   c0.079,0,0.152-0.018,0.222-0.055l2.85-1.555C401.19,27.431,401.271,27.331,401.307,27.211z M407.535,23.292   c0.085,0.146,0.241,0.235,0.405,0.235c0.08,0,0.159-0.021,0.233-0.061l2.816-1.606c0.11-0.061,0.189-0.161,0.22-0.282   c0.034-0.12,0.02-0.248-0.043-0.357c-0.084-0.144-0.239-0.233-0.405-0.233c-0.083,0-0.163,0.021-0.233,0.06l-2.817,1.604   C407.487,22.781,407.41,23.067,407.535,23.292z M402.333,28.136c-0.163,0-0.317,0.087-0.4,0.226l-1.683,2.774   c-0.131,0.222-0.059,0.509,0.162,0.644c0.073,0.043,0.155,0.064,0.241,0.064c0.166,0,0.315-0.085,0.399-0.226l1.68-2.773   c0.135-0.222,0.063-0.51-0.157-0.644C402.503,28.159,402.421,28.136,402.333,28.136z M406.438,22.031   c0.165,0,0.32-0.088,0.404-0.232l1.63-2.805c0.061-0.108,0.079-0.234,0.046-0.355c-0.032-0.12-0.109-0.221-0.217-0.284   c-0.071-0.041-0.152-0.063-0.234-0.063c-0.167,0-0.321,0.09-0.406,0.234l-1.627,2.803c-0.064,0.107-0.081,0.234-0.049,0.356   c0.032,0.12,0.107,0.223,0.218,0.286C406.274,22.011,406.354,22.031,406.438,22.031z M400.812,25.224   c0.002-0.121-0.041-0.247-0.122-0.343c-0.085-0.106-0.207-0.167-0.34-0.17l-3.249,0.068c-0.378,0-0.464,0.192-0.467,0.356   c-0.004,0.136,0.05,0.367,0.449,0.379l3.261,0.198C400.591,25.712,400.803,25.49,400.812,25.224z M408.176,26.752   c-0.072-0.042-0.155-0.065-0.24-0.065c-0.165,0-0.318,0.088-0.4,0.229c-0.063,0.106-0.084,0.231-0.053,0.352   c0.031,0.122,0.106,0.224,0.216,0.289l2.789,1.657c0.072,0.042,0.154,0.064,0.237,0.064c0.166,0,0.321-0.087,0.403-0.227   c0.064-0.108,0.082-0.232,0.053-0.354c-0.031-0.123-0.108-0.225-0.218-0.288L408.176,26.752z M401.356,18.44   c-0.082-0.153-0.241-0.248-0.413-0.248c-0.078,0-0.152,0.019-0.221,0.056c-0.11,0.059-0.19,0.158-0.227,0.277   c-0.037,0.119-0.024,0.247,0.036,0.356l1.526,2.861c0.079,0.153,0.237,0.248,0.412,0.248c0.08,0,0.153-0.018,0.221-0.055   c0.11-0.059,0.191-0.157,0.228-0.278c0.035-0.12,0.021-0.245-0.036-0.353L401.356,18.44z M411.737,24.738l-3.246,0.041   c-0.27,0-0.467,0.176-0.468,0.418c-0.003,0.115,0.038,0.217,0.115,0.294c0.084,0.088,0.208,0.138,0.345,0.138l3.252,0.083   c0.251,0,0.465-0.219,0.467-0.48C412.205,24.967,411.995,24.741,411.737,24.738z M406.838,28.418   c-0.084-0.149-0.241-0.24-0.41-0.24c-0.079,0-0.156,0.02-0.226,0.058c-0.229,0.126-0.309,0.41-0.183,0.637l1.58,2.834   c0.084,0.148,0.239,0.24,0.408,0.24c0.079,0,0.157-0.021,0.229-0.061c0.223-0.125,0.306-0.411,0.18-0.636L406.838,28.418z    M404.384,17.317c-0.258,0-0.467,0.21-0.467,0.468v3.242c0,0.258,0.209,0.468,0.467,0.468c0.26,0,0.469-0.21,0.469-0.468v-3.242   C404.853,17.527,404.644,17.317,404.384,17.317z M404.361,28.706c-0.264,0.037-0.449,0.225-0.454,0.453l-0.06,3.233   c-0.004,0.122,0.042,0.235,0.127,0.319c0.086,0.09,0.206,0.138,0.337,0.138h0.004c0.263,0,0.465-0.189,0.467-0.441l0.062-3.227   C404.846,28.922,404.638,28.707,404.361,28.706z"/>
	<path fill="#FFFFFF" d="M156.472,78.367c-0.107-0.065-0.18-0.169-0.21-0.292c-0.028-0.122-0.008-0.247,0.059-0.353   c0.084-0.138,0.232-0.221,0.398-0.221c0.085,0,0.169,0.024,0.244,0.068l2.759,1.708c0.105,0.064,0.181,0.167,0.211,0.289   c0.028,0.121,0.008,0.247-0.059,0.355c-0.084,0.139-0.234,0.222-0.397,0.222c-0.085,0-0.169-0.024-0.246-0.069L156.472,78.367z    M159.847,83.901c0.035-0.121,0.021-0.248-0.039-0.354c-0.081-0.15-0.238-0.244-0.41-0.244c-0.078,0-0.157,0.019-0.226,0.057   l-2.847,1.555c-0.109,0.06-0.189,0.159-0.225,0.279c-0.035,0.119-0.022,0.245,0.038,0.354c0.082,0.15,0.238,0.244,0.411,0.244   c0.079,0,0.153-0.018,0.223-0.057l2.849-1.553C159.731,84.121,159.811,84.022,159.847,83.901z M166.076,79.981   c0.085,0.146,0.241,0.236,0.406,0.236c0.081,0,0.161-0.021,0.233-0.061l2.817-1.606c0.109-0.061,0.188-0.161,0.22-0.281   c0.035-0.122,0.018-0.25-0.043-0.357c-0.083-0.146-0.24-0.235-0.406-0.235c-0.081,0-0.162,0.022-0.233,0.061l-2.818,1.605   C166.028,79.472,165.95,79.757,166.076,79.981z M160.875,84.827c-0.163,0-0.318,0.086-0.401,0.225l-1.682,2.775   c-0.132,0.221-0.06,0.508,0.161,0.643c0.074,0.044,0.155,0.064,0.241,0.064c0.167,0,0.315-0.083,0.399-0.225l1.682-2.774   c0.131-0.221,0.061-0.509-0.158-0.643C161.043,84.848,160.961,84.827,160.875,84.827z M164.979,78.722   c0.165,0,0.321-0.089,0.405-0.233l1.63-2.806c0.06-0.107,0.078-0.234,0.046-0.354c-0.033-0.121-0.11-0.222-0.218-0.285   c-0.071-0.041-0.152-0.063-0.234-0.063c-0.167,0-0.321,0.089-0.406,0.234l-1.626,2.802c-0.065,0.108-0.082,0.236-0.05,0.356   c0.033,0.121,0.108,0.223,0.217,0.286C164.816,78.7,164.896,78.722,164.979,78.722z M159.352,81.914   c0.002-0.121-0.041-0.247-0.121-0.343c-0.086-0.105-0.208-0.167-0.34-0.17l-3.25,0.067c-0.377,0-0.463,0.191-0.467,0.356   c-0.003,0.136,0.051,0.368,0.451,0.38l3.261,0.199C159.13,82.403,159.344,82.18,159.352,81.914z M166.718,83.443   c-0.073-0.044-0.155-0.066-0.241-0.066c-0.164,0-0.318,0.089-0.401,0.229c-0.063,0.107-0.083,0.231-0.052,0.352   c0.031,0.122,0.107,0.225,0.216,0.289l2.789,1.656c0.071,0.042,0.154,0.064,0.238,0.064c0.166,0,0.319-0.087,0.402-0.227   c0.064-0.108,0.083-0.232,0.052-0.354c-0.03-0.122-0.107-0.224-0.215-0.287L166.718,83.443z M159.897,75.13   c-0.082-0.153-0.241-0.246-0.414-0.246c-0.075,0-0.151,0.018-0.22,0.054c-0.109,0.059-0.191,0.158-0.228,0.278   c-0.036,0.119-0.024,0.246,0.036,0.355l1.525,2.86c0.08,0.155,0.238,0.25,0.414,0.25c0.08,0,0.154-0.018,0.22-0.057   c0.11-0.059,0.192-0.156,0.229-0.277c0.035-0.119,0.022-0.245-0.037-0.353L159.897,75.13z M170.278,81.428l-3.247,0.04   c-0.269,0-0.466,0.176-0.467,0.419c-0.002,0.115,0.037,0.217,0.114,0.294c0.085,0.088,0.208,0.138,0.346,0.138l3.251,0.084   c0.251,0,0.465-0.221,0.466-0.48C170.747,81.658,170.537,81.43,170.278,81.428z M165.377,85.108   c-0.083-0.149-0.239-0.24-0.409-0.24c-0.079,0-0.157,0.019-0.227,0.058c-0.226,0.126-0.307,0.41-0.181,0.637l1.579,2.834   c0.084,0.149,0.24,0.239,0.409,0.239c0.079,0,0.157-0.019,0.229-0.06c0.224-0.125,0.307-0.411,0.181-0.636L165.377,85.108z    M162.925,74.007c-0.258,0-0.466,0.211-0.466,0.468v3.243c0,0.259,0.208,0.468,0.466,0.468c0.259,0,0.468-0.209,0.468-0.468v-3.243   C163.393,74.218,163.184,74.007,162.925,74.007z M162.902,85.396c-0.263,0.036-0.45,0.225-0.453,0.453l-0.061,3.232   c-0.002,0.123,0.042,0.236,0.126,0.32c0.087,0.089,0.206,0.137,0.336,0.137h0.005c0.262,0,0.464-0.189,0.466-0.441l0.062-3.228   C163.386,85.612,163.179,85.398,162.902,85.396z"/>
	<g>
		<path fill="#45C1E3" d="M226.898,67.618c-2.153,1.81-5.374,1.531-7.183-0.622c-1.813-2.16-1.535-5.375,0.625-7.184    c2.151-1.815,5.372-1.537,7.181,0.62C229.336,62.588,229.056,65.805,226.898,67.618z"/>
		<path fill="#45C1E3" d="M202.71,77.913c-2.155,1.809-5.372,1.535-7.181-0.623c-1.815-2.157-1.535-5.374,0.623-7.184    c2.153-1.816,5.37-1.535,7.183,0.62C205.148,72.886,204.871,76.1,202.71,77.913z"/>
		<circle fill="#45C1E3" cx="223.619" cy="84.302" r="5.099"/>
		<path fill="#414042" d="M224.626,78.535c-2.524-0.438-4.874,0.796-6.058,2.843l-13.512-5.75c0.102-0.36,0.174-0.733,0.208-1.116    c0.063-0.71-0.02-1.41-0.208-2.08l13.506-5.79c0.168,0.292,0.353,0.574,0.573,0.837c1.116,1.329,2.751,2.088,4.483,2.088    c1.375,0,2.711-0.491,3.767-1.372c1.198-1.009,1.931-2.418,2.065-3.977c0.138-1.56-0.344-3.077-1.35-4.275    c-1.116-1.328-2.752-2.088-4.488-2.088c-1.371,0-2.707,0.491-3.763,1.377c-1.198,1.002-1.934,2.416-2.066,3.973    c-0.063,0.699,0.02,1.385,0.199,2.043l-13.519,5.795c-0.163-0.281-0.34-0.55-0.551-0.804c-1.116-1.328-2.751-2.087-4.484-2.087    c-1.377,0-2.714,0.487-3.767,1.374c-1.198,1.005-1.931,2.416-2.065,3.975c-0.138,1.559,0.344,3.074,1.349,4.272    c1.116,1.328,2.75,2.09,4.488,2.09c1.371,0,2.71-0.489,3.762-1.374c0.505-0.427,0.91-0.934,1.238-1.485l13.561,5.771    c-0.047,0.174-0.113,0.338-0.144,0.518c-0.556,3.178,1.579,6.217,4.761,6.777c0.34,0.057,0.679,0.087,1.014,0.087    c2.848,0,5.269-2.041,5.763-4.851C229.943,82.129,227.808,79.089,224.626,78.535z M220.825,60.39    c0.782-0.661,1.771-1.019,2.79-1.019c1.29,0,2.501,0.562,3.331,1.548c1.539,1.834,1.3,4.578-0.535,6.121    c-1.765,1.485-4.638,1.232-6.118-0.534c-0.743-0.887-1.102-2.011-1.003-3.169C219.392,62.181,219.938,61.134,220.825,60.39z     M202.225,77.334c-1.77,1.484-4.638,1.23-6.121-0.532c-0.746-0.887-1.099-2.013-1-3.167c0.099-1.157,0.642-2.204,1.535-2.95    c0.78-0.659,1.771-1.022,2.791-1.022c1.286,0,2.5,0.568,3.327,1.551C204.297,73.047,204.061,75.793,202.225,77.334z     M227.898,85.049c-0.405,2.33-2.622,3.958-5.024,3.532c-2.364-0.414-3.944-2.667-3.532-5.024c0.364-2.085,2.16-3.597,4.27-3.597    c0.25,0,0.501,0.021,0.757,0.066C226.726,80.436,228.309,82.691,227.898,85.049z"/>
	</g>
	<g>
		<path fill="#FF6E40" d="M356.25,31.512c0-8.032-6.552-14.211-14.585-14.211h-3.236c-8.03,0-14.967,6.179-14.967,14.211v-0.248    c0,8.032,6.937,14.452,14.967,14.452h3.236c1.075,0,2.125,0.195,3.128-0.026l10.47,2.827l-2.603-7.257    c2.216-2.554,3.59-5.998,3.59-9.645V31.512z"/>
		<path fill="#F9D657" d="M356.25,31.512c0-8.032-6.552-14.211-14.585-14.211h-3.236c-8.03,0-14.967,6.179-14.967,14.211v-0.248    c0,8.032,6.937,14.452,14.967,14.452h3.236c1.075,0,2.125,0.195,3.128-0.026l10.47,2.827l-2.603-7.257    c2.216-2.554,3.59-5.998,3.59-9.645V31.512z"/>
		<path fill="#414042" d="M353.256,41.459c2.022-2.536,3.091-5.896,3.091-9.78c0-8.488-6.313-14.888-14.682-14.888h-3.236    c-8.674,0-15.514,6.456-15.608,14.721l-0.002,0.167h0.002c0.089,8.435,7.077,15.288,15.608,15.288h3.236    c1.11,0,2.119-0.017,3.106-0.209l11.896,3.094L353.256,41.459z M344.613,45.078c-0.89,0.199-1.821,0.212-2.948,0.212h-3.236    c-7.64,0-13.89-6.144-13.934-13.691c0.042-7.363,6.165-13.13,13.934-13.13h3.236c7.533,0,13.006,5.556,13.006,13.249    c0,3.646-1.042,6.773-3.014,9.042l-0.337,0.39l2.534,6.24l-9.042-2.354L344.613,45.078z"/>
		<path fill="#414042" d="M347.892,22.185c-0.346-0.3-0.876-0.261-1.181,0.089c-0.3,0.349-0.266,0.878,0.087,1.182    c2.683,2.315,4.162,5.73,4.162,9.616c0,0.464,0.376,0.839,0.838,0.839c0.464,0,0.839-0.375,0.839-0.839    C352.637,28.69,350.954,24.822,347.892,22.185z"/>
		<path fill="#276FA0" d="M328.736,15.115h-3.235c-8.03,0-14.419,6.509-14.419,14.545l0,0c0,3.646,1.292,6.971,3.51,9.524    l-2.656,7.337l10.451-3.002c1.01,0.221,2.039,0.011,3.114,0.011h3.235c8.031,0,14.398-5.939,14.398-13.969v0.047    C343.135,21.578,336.768,15.115,328.736,15.115z"/>
		<path fill="#414042" d="M328.736,15.115h-3.235c-8.834,0-16.045,6.557-16.095,14.628v0.08c0.026,4.089,2.021,7.416,3.821,9.584    l-2.776,8.308l11.842-2.864c1.086,0.238,2.151,0.44,3.208,0.44h3.235c8.565,0,15.835-7.096,15.874-15.503c0-0.021,0-0.042,0-0.062    C344.537,21.527,337.578,15.115,328.736,15.115z M328.736,43.615h-3.235c-1.028,0-2.189-0.255-3.039-0.443l-0.188-0.043    l-9.273,2.244l2.118-6.336l-0.314-0.36c-1.69-1.947-3.708-5.07-3.723-8.893c0.022-7.164,6.492-12.992,14.419-12.992h3.235    c7.929,0,14.164,5.712,14.199,12.996C342.899,37.281,336.396,43.615,328.736,43.615z"/>
		<path fill="#FFFFFF" d="M321.388,29.954c0,1.482-1.202,2.682-2.683,2.682c-1.483,0-2.688-1.2-2.688-2.682    c0-1.485,1.205-2.688,2.688-2.688C320.187,27.266,321.388,28.468,321.388,29.954z"/>
		<path fill="#FFFFFF" d="M329.455,29.954c0,1.482-1.203,2.682-2.688,2.682c-1.48,0-2.682-1.2-2.682-2.682    c0-1.485,1.202-2.688,2.682-2.688C328.252,27.266,329.455,28.468,329.455,29.954z"/>
		<path fill="#FFFFFF" d="M337.52,29.954c0,1.482-1.2,2.682-2.683,2.682c-1.484,0-2.688-1.2-2.688-2.682    c0-1.485,1.204-2.688,2.688-2.688C336.319,27.266,337.52,28.468,337.52,29.954z"/>
	</g>
</g>
</svg>
